 http://img831.imageshack.us/img831/7729/zookeeper2011.jpg

Country.......: USA
Genre.........: Comedy, Romance, Family
Date release..: 06.07.2011 [World]
Director......: Frank Coraci
Writers.......: Nick Bakay, Rock Reuben
Duration......: 98 min.
More..........: http://www.imdb.com/title/tt1222817
Trailer.......: http://www.imdb.com/video/imdb/vi593927449
Trailer.......:

Pilot :
A group of zoo animals decide to break their code of silence in order to help their lovable zoo keeper find love without opting to leave his current job for something more illustrious.

Cats :
Kevin James   	 ...  	Griffin Keyes
Rosario Dawson 	... 	Kate
Leslie Bibb 	... 	Stephanie
Ken Jeong 	... 	Venom
Donnie Wahlberg 	... 	Shane
Joe Rogan 	... 	Gale
Nat Faxon 	... 	Dave
Steffiana De La Cruz 	... 	Robin
Nick Bakay 	... 	Franky
Jackie Sandler 	... 	TGIF Waitress
Nicholas Turturro 	... 	Manny (as Nick Turturro)
Thomas Gottschalk 	... 	Jurgen
Brandon Keener 	... 	Nimer
Robin Bakay 	... 	Rebecca
Gary Valentine 	... 	Pizza Guy 

Data Technical :
!!! SAMPLE !!!
Audio.....: English
Subtitles.: Spanish .srt, Swedish .srt
Format                           : AVI
Format/Info                      : Audio Video Interleave
File size                        : 1.37 GiB
Duration                         : 1h 37mn
Overall bit rate                 : 2 005 Kbps
Writing library                  : VirtualDub build 30586/release
Video
ID                               : 0
Format                           : MPEG-4 Visual
Format profile                   : Advanced Simple@L5
Format settings, BVOP            : Yes
Format settings, QPel            : No
Format settings, GMC             : No warppoints
Format settings, Matrix          : Default (MPEG)
Muxing mode                      : Packed bitstream
Codec ID                         : XVID
Codec ID/Hint                    : XviD
Duration                         : 1h 37mn
Bit rate                         : 1 868 Kbps
Width                            : 720 pixels
Height                           : 304 pixels
Display aspect ratio             : 2.35:1
Frame rate                       : 25.000 fps
Color space                      : YUV
Chroma subsampling               : 4:2:0
Bit depth                        : 8 bits
Scan type                        : Progressive
Bits/(Pixel*Frame)               : 0.341
Stream size                      : 1.27 GiB (93%)
Writing library                  : XviD 64
Audio
ID                               : 1
Format                           : MPEG Audio
Format version                   : Version 1
Format profile                   : Layer 3
Mode                             : Joint stereo
Mode extension                   : MS Stereo
Codec ID                         : 55
Codec ID/Hint                    : MP3
Duration                         : 1h 37mn
Bit rate mode                    : Constant
Bit rate                         : 128 Kbps
Channel(s)                       : 2 channels
Sampling rate                    : 44.1 KHz
Stream size                      : 89.3 MiB (6%)
Alignment                        : Split accross interleaves
Interleave, duration             : 40 ms (1.00 video frame)
Writing library                  : LAME3.98r
Encoding settings                : -m j -V 4 -q 2 -lowpass 17 -b 128

Screen : 
http://img12.imageshack.us/img12/4519/zookeeper2011s1.jpg 
http://img718.imageshack.us/img718/2630/zookeeper2011s2.jpg 
http://img641.imageshack.us/img641/5152/zookeeper2011s3.jpg 
http://img17.imageshack.us/img17/1258/zookeeper2011s4.jpg 
http://img651.imageshack.us/img651/4270/zookeeper2011s5.jpg